<svg version="1.0" xmlns="http://www.w3.org/2000/svg" width="933.333" height="933.333" viewBox="0 0 700 700"><path d="M252.1 19.7c-4.1 10.9-7.9 21.1-8.6 22.8C241 48.3 230 77.6 230 78.3c0 .4-.9 2.6-1.9 5-1.1 2.3-4.9 12.1-8.5 21.7-3.6 9.6-9.2 24.5-12.5 33-3.2 8.5-14.8 38.9-25.6 67.5-18.1 47.6-45.3 119.4-50.9 134-5.6 14.7-8.8 23.1-14.6 38.5-3.5 9.1-7.7 20.3-9.5 25-3 7.6-16.1 42.3-31.1 81.7-3 7.9-7.9 20.9-10.9 29-3.1 8.2-6 15.7-6.5 16.8-.5 1.1-7.2 18.9-15 39.5s-15.2 40.2-16.5 43.5c-1.3 3.3-6.7 17.5-12 31.5S3.9 673.2 2.6 676.5c-1.3 3.3-2.3 6.1-2.2 6.3.5.4 167.8.3 168.3-.1.2-.3 4.2-10.5 8.9-22.8 4.6-12.3 8.8-23.3 9.3-24.4.6-1.1 3.2-8.1 6-15.5 2.7-7.4 8.4-22.5 12.6-33.5 4.2-11 8.2-21.6 8.9-23.5 4.1-11.1 11-28.6 11.5-29.3.9-.9 235.3-1 236.1 0 .7.8 4.1 9.6 9.9 25.3 1.8 4.7 3.6 9.4 4.1 10.5.5 1.1 5.4 13.9 10.9 28.5s14.7 39.1 20.6 54.5c5.9 15.4 12.3 32.4 14.3 37.7l3.6 9.8h174.5l-2.5-6.8c-3.6-9.8-6.5-17.4-7.5-19.7-.5-1.1-6.3-16.4-12.9-34-6.6-17.6-12.4-32.9-12.9-34-.5-1.1-1.4-3.6-2.1-5.5-.7-1.9-1.6-4.4-2-5.5-.5-1.1-4.5-11.7-9-23.5s-9.9-26-12-31.5c-2.1-5.5-6.3-16.5-9.3-24.5-3-8-9.9-26-15.2-40-5.3-14-11.3-29.8-13.2-35-2-5.2-4.2-10.9-4.9-12.5-.7-1.7-5.3-13.8-10.3-27-4.9-13.2-14.2-37.7-20.6-54.5-12.8-33.7-17.7-46.6-35.3-93-6.6-17.3-22.4-59-35.2-92.5-12.8-33.6-25.9-68.2-29.2-77-3.3-8.8-6.8-18-7.8-20.5-3.4-8.8-17.4-45.7-20.5-54L434.3.5 346.9.2 259.5 0l-7.4 19.7zm95.7 212.6c1.8 5 3.7 10.1 4.3 11.2.5 1.1 3.8 9.6 7.3 19 3.5 9.3 9.4 24.9 13.1 34.5 3.6 9.6 10 26.3 14 37s11.2 29.6 16 42c4.8 12.4 8.9 23.2 9.1 24 .4 1.3-4.3 1.5-39.3 1.3-21.9-.1-50.6-.4-63.8-.8-13.2-.4-25.7-.8-27.7-.8-2.1-.1-3.8-.4-3.8-.7 0-.7 14.3-38.9 15.9-42.5.5-1.1 1.4-3.6 2.1-5.5.7-1.9 1.8-4.9 2.5-6.5.7-1.7 4.9-12.7 9.3-24.5 4.5-11.8 11.2-29.6 15-39.5 3.7-9.9 10.2-26.9 14.3-37.7 4.1-10.9 7.6-19.8 7.9-19.8.3 0 2 4.2 3.8 9.3z"/></svg>