<svg viewBox="0 0 80 80" xmlns="http://www.w3.org/2000/svg" xmlns:xlink="http://www.w3.org/1999/xlink"><defs><path id="a" d="M0 0h80v80H0z"/><path d="M52.546 8.014a3.998 3.998 0 0 1 4.222 3.077c.104.446.093.808.039 1.138a2.74 2.74 0 0 1-.312.881c-.073.132-.16.254-.246.376l-.257.366-.521.73a88.17 88.17 0 0 1-2.154 2.866l-.015.02a240.945 240.945 0 0 1 5.986.341l1.643.123.822.066.41.034.206.018.103.008.115.012c1.266.116 2.516.45 3.677.975a11.663 11.663 0 0 1 3.166 2.114c.931.87 1.719 1.895 2.321 3.022a11.595 11.595 0 0 1 1.224 3.613c.03.157.046.316.068.474l.015.119.013.112.022.206.085.822.159 1.646c.1 1.098.19 2.198.27 3.298.315 4.4.463 8.829.36 13.255a166.489 166.489 0 0 1-.843 13.213c-.012.127-.034.297-.053.454a7.589 7.589 0 0 1-.072.475l-.04.237-.05.236a11.762 11.762 0 0 1-.74 2.287 11.755 11.755 0 0 1-5.118 5.57 11.705 11.705 0 0 1-3.623 1.263c-.158.024-.316.052-.475.072l-.477.053-.821.071-1.644.134c-1.096.086-2.192.16-3.288.23a260.08 260.08 0 0 1-6.578.325c-8.772.324-17.546.22-26.313-.302a242.458 242.458 0 0 1-3.287-.22l-1.643-.129-.822-.069-.41-.035-.206-.018c-.068-.006-.133-.01-.218-.02a11.566 11.566 0 0 1-3.7-.992 11.732 11.732 0 0 1-5.497-5.178 11.73 11.73 0 0 1-1.215-3.627c-.024-.158-.051-.316-.067-.475l-.026-.238-.013-.119-.01-.103-.07-.823-.132-1.648a190.637 190.637 0 0 1-.22-3.298 163.97 163.97 0 0 1-.258-13.233c.099-4.412.372-8.811.788-13.197a11.65 11.65 0 0 1 3.039-6.835 11.585 11.585 0 0 1 6.572-3.563c.157-.023.312-.051.47-.07l.47-.05.82-.07 1.643-.13a228.493 228.493 0 0 1 6.647-.405l-.041-.05a88.145 88.145 0 0 1-2.154-2.867l-.52-.73-.258-.366c-.086-.122-.173-.244-.246-.376a2.74 2.74 0 0 1-.312-.881 2.808 2.808 0 0 1 .04-1.138 3.998 3.998 0 0 1 4.22-3.077 2.8 2.8 0 0 1 1.093.313c.294.155.538.347.742.568.102.11.19.23.28.35l.27.359.532.72a88.059 88.059 0 0 1 2.06 2.936 73.036 73.036 0 0 1 1.929 3.03c.187.313.373.628.556.945a342.35 342.35 0 0 1 10.414-.012c.18-.313.364-.624.549-.934a73.281 73.281 0 0 1 1.93-3.03 88.737 88.737 0 0 1 2.059-2.935l.533-.72.268-.359c.09-.12.179-.24.281-.35a2.8 2.8 0 0 1 1.834-.881zM30.13 34.631a4 4 0 0 0-.418 1.42 91.157 91.157 0 0 0-.446 9.128c0 2.828.121 5.656.364 8.483l.11 1.212a4 4 0 0 0 5.858 3.143c2.82-1.498 5.55-3.033 8.193-4.606a177.41 177.41 0 0 0 5.896-3.666l1.434-.942a4 4 0 0 0 .047-6.632 137.703 137.703 0 0 0-7.377-4.708 146.88 146.88 0 0 0-6.879-3.849l-1.4-.725a4 4 0 0 0-5.382 1.742z" id="d"/><filter x="-15.4%" y="-16.3%" width="130.9%" height="132.5%" filterUnits="objectBoundingBox" id="c"><feOffset dy="2" in="SourceAlpha" result="shadowOffsetOuter1"/><feGaussianBlur stdDeviation="1" in="shadowOffsetOuter1" result="shadowBlurOuter1"/><feColorMatrix values="0 0 0 0 0 0 0 0 0 0 0 0 0 0 0 0 0 0 0.3 0" in="shadowBlurOuter1" result="shadowMatrixOuter1"/><feOffset in="SourceAlpha" result="shadowOffsetOuter2"/><feGaussianBlur stdDeviation="3.5" in="shadowOffsetOuter2" result="shadowBlurOuter2"/><feColorMatrix values="0 0 0 0 0 0 0 0 0 0 0 0 0 0 0 0 0 0 0.2 0" in="shadowBlurOuter2" result="shadowMatrixOuter2"/><feMerge><feMergeNode in="shadowMatrixOuter1"/><feMergeNode in="shadowMatrixOuter2"/></feMerge></filter></defs><g fill="none" fill-rule="evenodd" opacity=".8"><mask id="b" fill="#fff"><use xlink:href="#a"/></mask><g mask="url(#b)"><use fill="#000" filter="url(#c)" xlink:href="#d"/><use fill="#FFF" xlink:href="#d"/></g></g></svg>